<?xml version="1.0" encoding="utf-8"?>
<!-- Generator: Adobe Illustrator 21.1.0, SVG Export Plug-In . SVG Version: 6.00 Build 0)  -->
<svg version="1.1" id="Layer_1" xmlns="http://www.w3.org/2000/svg" xmlns:xlink="http://www.w3.org/1999/xlink" x="0px" y="0px"
	 viewBox="0 0 256 256" style="enable-background:new 0 0 256 256;" xml:space="preserve">
<style type="text/css">
	.st0{fill:#CCCCCC;}
</style>
<g>
	<path class="st0" d="M256,256H0V0h255.9L256,256L256,256z M17,239.9h222.2V16.1H17V239.9z"/>
</g>
<g>
	<path class="st0" d="M71.6,46.6c0,12.8-10.5,23.3-23.3,23.3S25.1,59.4,25.1,46.6s10.5-23.3,23.3-23.3
		C61.2,23.4,71.6,33.8,71.6,46.6z"/>
</g>
<path class="st0" d="M101.5,34.3c6.8,0,12.3,5.5,12.3,12.3s-5.5,12.3-12.3,12.3c-6.8,0-12.3-5.5-12.3-12.3S94.7,34.3,101.5,34.3
	 M101.5,23.4c-12.8,0-23.3,10.5-23.3,23.3s10.5,23.3,23.3,23.3c12.8,0,23.3-10.5,23.3-23.3S114.3,23.4,101.5,23.4L101.5,23.4z"/>
<path class="st0" d="M154.5,34.3c6.8,0,12.3,5.5,12.3,12.3s-5.5,12.3-12.3,12.3s-12.3-5.5-12.3-12.3S147.8,34.3,154.5,34.3
	 M154.5,23.4c-12.8,0-23.3,10.5-23.3,23.3s10.5,23.3,23.3,23.3c12.8,0,23.3-10.5,23.3-23.3S167.3,23.4,154.5,23.4L154.5,23.4z"/>
<path class="st0" d="M207.6,34.3c6.8,0,12.3,5.5,12.3,12.3s-5.5,12.3-12.3,12.3s-12.3-5.5-12.3-12.3S200.9,34.3,207.6,34.3
	 M207.6,23.4c-12.8,0-23.3,10.5-23.3,23.3s10.5,23.3,23.3,23.3s23.3-10.5,23.3-23.3S220.4,23.4,207.6,23.4L207.6,23.4z"/>
<path class="st0" d="M48.4,88.6c6.8,0,12.3,5.5,12.3,12.3s-5.5,12.3-12.3,12.3S36,107.7,36,100.9S41.6,88.6,48.4,88.6 M48.4,77.6
	c-12.8,0-23.3,10.5-23.3,23.3s10.5,23.3,23.3,23.3s23.3-10.5,23.3-23.3S61.2,77.6,48.4,77.6L48.4,77.6z"/>
<g>
	<path class="st0" d="M124.7,100.9c0,12.8-10.5,23.3-23.3,23.3s-23.3-10.5-23.3-23.3s10.5-23.3,23.3-23.3S124.7,88.1,124.7,100.9z"
		/>
</g>
<path class="st0" d="M154.5,88.6c6.8,0,12.3,5.5,12.3,12.3s-5.5,12.3-12.3,12.3s-12.3-5.5-12.3-12.3S147.8,88.6,154.5,88.6
	 M154.5,77.6c-12.8,0-23.3,10.5-23.3,23.3s10.5,23.3,23.3,23.3c12.8,0,23.3-10.5,23.3-23.3S167.3,77.6,154.5,77.6L154.5,77.6z"/>
<path class="st0" d="M207.6,88.6c6.8,0,12.3,5.5,12.3,12.3s-5.5,12.3-12.3,12.3s-12.3-5.5-12.3-12.3S200.9,88.6,207.6,88.6
	 M207.6,77.6c-12.8,0-23.3,10.5-23.3,23.3s10.5,23.3,23.3,23.3s23.3-10.5,23.3-23.3S220.4,77.6,207.6,77.6L207.6,77.6z"/>
<path class="st0" d="M48.4,142.8c6.8,0,12.3,5.5,12.3,12.3c0,6.8-5.5,12.3-12.3,12.3S36,161.9,36,155.1
	C36,148.3,41.6,142.8,48.4,142.8 M48.4,131.9c-12.8,0-23.3,10.5-23.3,23.3c0,12.8,10.5,23.3,23.3,23.3s23.3-10.5,23.3-23.3
	C71.6,142.3,61.2,131.9,48.4,131.9L48.4,131.9z"/>
<path class="st0" d="M101.5,142.8c6.8,0,12.3,5.5,12.3,12.3c0,6.8-5.5,12.3-12.3,12.3c-6.8,0-12.3-5.5-12.3-12.3
	C89.1,148.3,94.7,142.8,101.5,142.8 M101.5,131.9c-12.8,0-23.3,10.5-23.3,23.3c0,12.8,10.5,23.3,23.3,23.3
	c12.8,0,23.3-10.5,23.3-23.3C124.7,142.3,114.3,131.9,101.5,131.9L101.5,131.9z"/>
<g>
	<path class="st0" d="M177.8,155.1c0,12.8-10.5,23.3-23.3,23.3c-12.8,0-23.3-10.5-23.3-23.3c0-12.8,10.5-23.3,23.3-23.3
		S177.8,142.3,177.8,155.1z"/>
</g>
<path class="st0" d="M207.6,142.8c6.8,0,12.3,5.5,12.3,12.3c0,6.8-5.5,12.3-12.3,12.3s-12.3-5.5-12.3-12.3
	C195.3,148.3,200.9,142.8,207.6,142.8 M207.6,131.9c-12.8,0-23.3,10.5-23.3,23.3c0,12.8,10.5,23.3,23.3,23.3s23.3-10.5,23.3-23.3
	C230.9,142.3,220.4,131.9,207.6,131.9L207.6,131.9z"/>
<path class="st0" d="M48.4,197.1c6.8,0,12.3,5.5,12.3,12.3c0,6.8-5.5,12.3-12.3,12.3S36,216.2,36,209.4
	C36,202.6,41.6,197.1,48.4,197.1 M48.4,186.1c-12.8,0-23.3,10.5-23.3,23.3c0,12.8,10.5,23.3,23.3,23.3s23.3-10.5,23.3-23.3
	C71.6,196.6,61.2,186.1,48.4,186.1L48.4,186.1z"/>
<path class="st0" d="M101.5,197.1c6.8,0,12.3,5.5,12.3,12.3c0,6.8-5.5,12.3-12.3,12.3c-6.8,0-12.3-5.5-12.3-12.3
	C89.1,202.6,94.7,197.1,101.5,197.1 M101.5,186.1c-12.8,0-23.3,10.5-23.3,23.3c0,12.8,10.5,23.3,23.3,23.3
	c12.8,0,23.3-10.5,23.3-23.3C124.7,196.6,114.3,186.1,101.5,186.1L101.5,186.1z"/>
<path class="st0" d="M154.5,197.1c6.8,0,12.3,5.5,12.3,12.3c0,6.8-5.5,12.3-12.3,12.3s-12.3-5.5-12.3-12.3
	C142.2,202.6,147.8,197.1,154.5,197.1 M154.5,186.1c-12.8,0-23.3,10.5-23.3,23.3c0,12.8,10.5,23.3,23.3,23.3
	c12.8,0,23.3-10.5,23.3-23.3C177.8,196.6,167.3,186.1,154.5,186.1L154.5,186.1z"/>
<g>
	<path class="st0" d="M230.9,209.4c0,12.8-10.5,23.3-23.3,23.3s-23.3-10.5-23.3-23.3c0-12.8,10.5-23.3,23.3-23.3
		C220.4,186.1,230.9,196.6,230.9,209.4z"/>
</g>
</svg>
